<?xml version="1.0" encoding="UTF-8" standalone="no"?>
<!DOCTYPE svg PUBLIC "-//W3C//DTD SVG 1.1//EN"
 "http://www.w3.org/Graphics/SVG/1.1/DTD/svg11.dtd">
<!-- Generated by graphviz version 12.2.1 (20241206.2353)
 -->
<!-- Title: Relationships Pages: 1 -->
<svg width="726pt" height="283pt"
 viewBox="0.00 0.00 725.50 283.09" xmlns="http://www.w3.org/2000/svg" xmlns:xlink="http://www.w3.org/1999/xlink">
<g id="graph0" class="graph" transform="scale(1 1) rotate(0) translate(4 279.09)">
<title>Relationships</title>
<polygon fill="white" stroke="none" points="-4,4 -4,-279.09 721.5,-279.09 721.5,4 -4,4"/>
<!-- Assembly -->
<g id="node1" class="node">
<title>Assembly</title>
<path fill="none" stroke="black" d="M195.12,-195C195.12,-195 148.38,-195 148.38,-195 142.38,-195 136.38,-189 136.38,-183 136.38,-183 136.38,-171 136.38,-171 136.38,-165 142.38,-159 148.38,-159 148.38,-159 195.12,-159 195.12,-159 201.12,-159 207.12,-165 207.12,-171 207.12,-171 207.12,-183 207.12,-183 207.12,-189 201.12,-195 195.12,-195"/>
<text text-anchor="middle" x="171.75" y="-171.95" font-family="Times,serif" font-size="14.00">Assembly</text>
</g>
<!-- Strain -->
<g id="node2" class="node">
<title>Strain</title>
<path fill="none" stroke="black" d="M361,-195C361,-195 331,-195 331,-195 325,-195 319,-189 319,-183 319,-183 319,-171 319,-171 319,-165 325,-159 331,-159 331,-159 361,-159 361,-159 367,-159 373,-165 373,-171 373,-171 373,-183 373,-183 373,-189 367,-195 361,-195"/>
<text text-anchor="middle" x="346" y="-171.95" font-family="Times,serif" font-size="14.00">Strain</text>
</g>
<!-- Assembly&#45;&gt;Strain -->
<g id="edge1" class="edge">
<title>Assembly&#45;&gt;Strain</title>
<path fill="none" stroke="black" stroke-dasharray="5,2" d="M207.61,-177C236.59,-177 277.76,-177 307.47,-177"/>
<polygon fill="black" stroke="black" points="307.12,-180.5 317.12,-177 307.12,-173.5 307.12,-180.5"/>
<text text-anchor="middle" x="261.88" y="-178.75" font-family="Times,serif" font-size="10.00">strain</text>
</g>
<!-- Strain&#45;&gt;Strain -->
<g id="edge15" class="edge">
<title>Strain&#45;&gt;Strain</title>
<path fill="none" stroke="green" stroke-dasharray="5,2" d="M330.78,-195.15C328.44,-204.54 333.51,-213 346,-213 353.02,-213 357.7,-210.32 360.03,-206.31"/>
<polygon fill="green" stroke="green" points="363.48,-206.97 361.06,-196.66 356.52,-206.23 363.48,-206.97"/>
<text text-anchor="middle" x="346" y="-214.75" font-family="Times,serif" font-size="10.00">derived_from</text>
</g>
<!-- Genome -->
<g id="node8" class="node">
<title>Genome</title>
<path fill="none" stroke="black" d="M705.5,-198C705.5,-198 667,-198 667,-198 661,-198 655,-192 655,-186 655,-186 655,-174 655,-174 655,-168 661,-162 667,-162 667,-162 705.5,-162 705.5,-162 711.5,-162 717.5,-168 717.5,-174 717.5,-174 717.5,-186 717.5,-186 717.5,-192 711.5,-198 705.5,-198"/>
<text text-anchor="middle" x="686.25" y="-174.95" font-family="Times,serif" font-size="14.00">Genome</text>
</g>
<!-- Strain&#45;&gt;Genome -->
<g id="edge11" class="edge">
<title>Strain&#45;&gt;Genome</title>
<path fill="none" stroke="black" stroke-dasharray="5,2" d="M369.81,-195.29C395.04,-214.24 437.74,-242.65 480,-254 525.82,-266.31 541.39,-267.9 586.75,-254 615.48,-245.19 642.34,-223.77 660.73,-206.23"/>
<polygon fill="black" stroke="black" points="662.83,-209.08 667.48,-199.56 657.91,-204.09 662.83,-209.08"/>
<text text-anchor="middle" x="533.38" y="-265.59" font-family="Times,serif" font-size="10.00">genome</text>
</g>
<!-- Gene -->
<g id="node9" class="node">
<title>Gene</title>
<path fill="none" stroke="black" d="M548.38,-144C548.38,-144 518.38,-144 518.38,-144 512.38,-144 506.38,-138 506.38,-132 506.38,-132 506.38,-120 506.38,-120 506.38,-114 512.38,-108 518.38,-108 518.38,-108 548.38,-108 548.38,-108 554.38,-108 560.38,-114 560.38,-120 560.38,-120 560.38,-132 560.38,-132 560.38,-138 554.38,-144 548.38,-144"/>
<text text-anchor="middle" x="533.38" y="-120.95" font-family="Times,serif" font-size="14.00">Gene</text>
</g>
<!-- Strain&#45;&gt;Gene -->
<g id="edge13" class="edge">
<title>Strain&#45;&gt;Gene</title>
<path fill="none" stroke="blue" stroke-dasharray="5,2" d="M373.35,-164.56C381.45,-161.06 390.49,-157.46 399,-154.75 431.08,-144.53 468.65,-136.8 495.73,-131.94"/>
<polygon fill="blue" stroke="blue" points="495.74,-131.94 506.36,-134.65 500.99,-131.02 505.26,-130.27 505.26,-130.27 505.26,-130.27 500.99,-131.02 504.81,-125.78 495.74,-131.94"/>
<text text-anchor="middle" x="430.5" y="-156.5" font-family="Times,serif" font-size="10.00">genes_changed</text>
</g>
<!-- Bin -->
<g id="node3" class="node">
<title>Bin</title>
<path fill="none" stroke="black" d="M43.62,-195C43.62,-195 13.62,-195 13.62,-195 7.63,-195 1.62,-189 1.62,-183 1.62,-183 1.62,-171 1.62,-171 1.62,-165 7.62,-159 13.62,-159 13.62,-159 43.62,-159 43.62,-159 49.62,-159 55.62,-165 55.62,-171 55.62,-171 55.62,-183 55.62,-183 55.62,-189 49.62,-195 43.62,-195"/>
<text text-anchor="middle" x="28.62" y="-171.95" font-family="Times,serif" font-size="14.00">Bin</text>
</g>
<!-- Bin&#45;&gt;Assembly -->
<g id="edge2" class="edge">
<title>Bin&#45;&gt;Assembly</title>
<path fill="none" stroke="black" d="M55.84,-177C75.05,-177 101.63,-177 124.39,-177"/>
<polygon fill="black" stroke="black" points="124.37,-180.5 134.37,-177 124.37,-173.5 124.37,-180.5"/>
<text text-anchor="middle" x="94" y="-178.75" font-family="Times,serif" font-size="10.00">assembly</text>
</g>
<!-- Community -->
<g id="node4" class="node">
<title>Community</title>
<path fill="none" stroke="black" d="M200.75,-100C200.75,-100 142.75,-100 142.75,-100 136.75,-100 130.75,-94 130.75,-88 130.75,-88 130.75,-76 130.75,-76 130.75,-70 136.75,-64 142.75,-64 142.75,-64 200.75,-64 200.75,-64 206.75,-64 212.75,-70 212.75,-76 212.75,-76 212.75,-88 212.75,-88 212.75,-94 206.75,-100 200.75,-100"/>
<text text-anchor="middle" x="171.75" y="-76.95" font-family="Times,serif" font-size="14.00">Community</text>
</g>
<!-- Community&#45;&gt;Strain -->
<g id="edge5" class="edge">
<title>Community&#45;&gt;Strain</title>
<path fill="none" stroke="black" stroke-dasharray="5,2" d="M205.96,-100.32C235.47,-116.59 278.52,-140.33 308.88,-157.08"/>
<polygon fill="black" stroke="black" points="306.88,-159.97 317.33,-161.74 310.26,-153.84 306.88,-159.97"/>
<text text-anchor="middle" x="261.88" y="-148.02" font-family="Times,serif" font-size="10.00">defined_strains</text>
</g>
<!-- Community&#45;&gt;Community -->
<g id="edge14" class="edge">
<title>Community&#45;&gt;Community</title>
<path fill="none" stroke="green" stroke-dasharray="5,2" d="M157.68,-100.15C155.52,-109.54 160.21,-118 171.75,-118 178.24,-118 182.57,-115.32 184.72,-111.31"/>
<polygon fill="green" stroke="green" points="188.17,-111.95 185.67,-101.66 181.21,-111.27 188.17,-111.95"/>
<text text-anchor="middle" x="171.75" y="-119.75" font-family="Times,serif" font-size="10.00">parent_community</text>
</g>
<!-- Condition -->
<g id="node5" class="node">
<title>Condition</title>
<path fill="none" stroke="black" d="M369,-100C369,-100 323,-100 323,-100 317,-100 311,-94 311,-88 311,-88 311,-76 311,-76 311,-70 317,-64 323,-64 323,-64 369,-64 369,-64 375,-64 381,-70 381,-76 381,-76 381,-88 381,-88 381,-94 375,-100 369,-100"/>
<text text-anchor="middle" x="346" y="-76.95" font-family="Times,serif" font-size="14.00">Condition</text>
</g>
<!-- Community&#45;&gt;Condition -->
<g id="edge3" class="edge">
<title>Community&#45;&gt;Condition</title>
<path fill="none" stroke="black" stroke-dasharray="5,2" d="M213.13,-82C238.95,-82 272.48,-82 299.27,-82"/>
<polygon fill="black" stroke="black" points="299.16,-85.5 309.16,-82 299.16,-78.5 299.16,-85.5"/>
<text text-anchor="middle" x="261.88" y="-83.75" font-family="Times,serif" font-size="10.00">condition</text>
</g>
<!-- Sample -->
<g id="node6" class="node">
<title>Sample</title>
<path fill="none" stroke="black" d="M362.62,-40C362.62,-40 329.38,-40 329.38,-40 323.38,-40 317.38,-34 317.38,-28 317.38,-28 317.38,-16 317.38,-16 317.38,-10 323.38,-4 329.38,-4 329.38,-4 362.62,-4 362.62,-4 368.62,-4 374.62,-10 374.62,-16 374.62,-16 374.62,-28 374.62,-28 374.62,-34 368.62,-40 362.62,-40"/>
<text text-anchor="middle" x="346" y="-16.95" font-family="Times,serif" font-size="14.00">Sample</text>
</g>
<!-- Community&#45;&gt;Sample -->
<g id="edge4" class="edge">
<title>Community&#45;&gt;Sample</title>
<path fill="none" stroke="black" stroke-dasharray="5,2" d="M213.13,-67.93C241.31,-58.12 278.7,-45.1 306.46,-35.42"/>
<polygon fill="black" stroke="black" points="307.24,-38.86 315.54,-32.26 304.94,-32.25 307.24,-38.86"/>
<text text-anchor="middle" x="261.88" y="-62.63" font-family="Times,serif" font-size="10.00">sample</text>
</g>
<!-- Location -->
<g id="node12" class="node">
<title>Location</title>
<path fill="none" stroke="black" d="M553.38,-36C553.38,-36 513.38,-36 513.38,-36 507.38,-36 501.38,-30 501.38,-24 501.38,-24 501.38,-12 501.38,-12 501.38,-6 507.38,0 513.38,0 513.38,0 553.38,0 553.38,0 559.38,0 565.38,-6 565.38,-12 565.38,-12 565.38,-24 565.38,-24 565.38,-30 559.38,-36 553.38,-36"/>
<text text-anchor="middle" x="533.38" y="-12.95" font-family="Times,serif" font-size="14.00">Location</text>
</g>
<!-- Sample&#45;&gt;Location -->
<g id="edge10" class="edge">
<title>Sample&#45;&gt;Location</title>
<path fill="none" stroke="black" d="M374.75,-21.4C405.15,-20.75 454.28,-19.69 489.61,-18.92"/>
<polygon fill="black" stroke="black" points="489.58,-22.42 499.5,-18.71 489.43,-15.43 489.58,-22.42"/>
<text text-anchor="middle" x="430.5" y="-22.57" font-family="Times,serif" font-size="10.00">location</text>
</g>
<!-- DubSeq_Library -->
<g id="node7" class="node">
<title>DubSeq_Library</title>
<path fill="none" stroke="black" d="M574.75,-245C574.75,-245 492,-245 492,-245 486,-245 480,-239 480,-233 480,-233 480,-221 480,-221 480,-215 486,-209 492,-209 492,-209 574.75,-209 574.75,-209 580.75,-209 586.75,-215 586.75,-221 586.75,-221 586.75,-233 586.75,-233 586.75,-239 580.75,-245 574.75,-245"/>
<text text-anchor="middle" x="533.38" y="-221.95" font-family="Times,serif" font-size="14.00">DubSeq_Library</text>
</g>
<!-- DubSeq_Library&#45;&gt;Genome -->
<g id="edge6" class="edge">
<title>DubSeq_Library&#45;&gt;Genome</title>
<path fill="none" stroke="black" d="M587.14,-210.56C605.86,-204.73 626.63,-198.26 644.23,-192.78"/>
<polygon fill="black" stroke="black" points="644.77,-196.28 653.28,-189.96 642.69,-189.59 644.77,-196.28"/>
<text text-anchor="middle" x="620.88" y="-206.66" font-family="Times,serif" font-size="10.00">genome</text>
</g>
<!-- Genome&#45;&gt;Strain -->
<g id="edge8" class="edge">
<title>Genome&#45;&gt;Strain</title>
<path fill="none" stroke="black" stroke-dasharray="5,2" d="M654.92,-179.73C593.01,-179.18 452.23,-177.93 384.62,-177.33"/>
<polygon fill="black" stroke="black" points="384.8,-173.84 374.77,-177.25 384.74,-180.83 384.8,-173.84"/>
<text text-anchor="middle" x="533.38" y="-180.84" font-family="Times,serif" font-size="10.00">strain</text>
</g>
<!-- Gene&#45;&gt;Genome -->
<g id="edge7" class="edge">
<title>Gene&#45;&gt;Genome</title>
<path fill="none" stroke="black" d="M560.6,-131.74C581.63,-136.73 611.72,-144.72 637,-154.75 639.45,-155.72 641.93,-156.78 644.42,-157.89"/>
<polygon fill="black" stroke="black" points="642.65,-160.93 653.19,-162.07 645.66,-154.61 642.65,-160.93"/>
<text text-anchor="middle" x="620.88" y="-156.5" font-family="Times,serif" font-size="10.00">genome</text>
</g>
<!-- Process -->
<g id="node10" class="node">
<title>Process</title>
<path fill="none" stroke="black" d="M45.25,-249C45.25,-249 12,-249 12,-249 6,-249 0,-243 0,-237 0,-237 0,-225 0,-225 0,-219 6,-213 12,-213 12,-213 45.25,-213 45.25,-213 51.25,-213 57.25,-219 57.25,-225 57.25,-225 57.25,-237 57.25,-237 57.25,-243 51.25,-249 45.25,-249"/>
<text text-anchor="middle" x="28.62" y="-225.95" font-family="Times,serif" font-size="14.00">Process</text>
</g>
<!-- Protocol -->
<g id="node11" class="node">
<title>Protocol</title>
<path fill="none" stroke="black" d="M190.62,-249C190.62,-249 152.88,-249 152.88,-249 146.88,-249 140.88,-243 140.88,-237 140.88,-237 140.88,-225 140.88,-225 140.88,-219 146.88,-213 152.88,-213 152.88,-213 190.62,-213 190.62,-213 196.62,-213 202.62,-219 202.62,-225 202.62,-225 202.62,-237 202.62,-237 202.62,-243 196.62,-249 190.62,-249"/>
<text text-anchor="middle" x="171.75" y="-225.95" font-family="Times,serif" font-size="14.00">Protocol</text>
</g>
<!-- Process&#45;&gt;Protocol -->
<g id="edge9" class="edge">
<title>Process&#45;&gt;Protocol</title>
<path fill="none" stroke="black" stroke-dasharray="5,2" d="M57.51,-231C77.98,-231 106.15,-231 129.26,-231"/>
<polygon fill="black" stroke="black" points="128.97,-234.5 138.97,-231 128.97,-227.5 128.97,-234.5"/>
<text text-anchor="middle" x="94" y="-232.75" font-family="Times,serif" font-size="10.00">protocol</text>
</g>
<!-- TnSeq_Library -->
<g id="node13" class="node">
<title>TnSeq_Library</title>
<path fill="none" stroke="black" d="M570.62,-90C570.62,-90 496.12,-90 496.12,-90 490.12,-90 484.12,-84 484.12,-78 484.12,-78 484.12,-66 484.12,-66 484.12,-60 490.12,-54 496.12,-54 496.12,-54 570.62,-54 570.62,-54 576.62,-54 582.62,-60 582.62,-66 582.62,-66 582.62,-78 582.62,-78 582.62,-84 576.62,-90 570.62,-90"/>
<text text-anchor="middle" x="533.38" y="-66.95" font-family="Times,serif" font-size="14.00">TnSeq_Library</text>
</g>
<!-- TnSeq_Library&#45;&gt;Genome -->
<g id="edge12" class="edge">
<title>TnSeq_Library&#45;&gt;Genome</title>
<path fill="none" stroke="black" d="M570.87,-90.46C576.22,-93.27 581.65,-96.18 586.75,-99 609.46,-111.56 616.74,-112.53 637,-128.75 646.06,-136.01 655.04,-144.93 662.76,-153.29"/>
<polygon fill="black" stroke="black" points="660,-155.46 669.27,-160.58 665.21,-150.79 660,-155.46"/>
<text text-anchor="middle" x="620.88" y="-130.5" font-family="Times,serif" font-size="10.00">genome</text>
</g>
</g>
</svg>
